<svg width="136" height="136" viewBox="0 0 136 136" fill="none" xmlns="http://www.w3.org/2000/svg">
<path d="M100 16.5H22V63.5H39L48.5 98.5L55.5 118.5H70V107V95L75 90.5L110 86L118 72L110 45.5L107 28.5L100 16.5Z" fill="white"/>
<path d="M117.542 65.0962C118.019 63.494 118.257 61.8385 118.257 60.1563C118.257 56.3779 117.025 52.7464 114.799 49.7825C115.276 48.1803 115.514 46.5248 115.514 44.8425C115.514 41.0642 114.282 37.4327 112.056 34.4687C112.533 32.8666 112.772 31.211 112.772 29.5288C112.772 22.6396 108.704 16.4313 102.397 13.7211C101.288 13.2395 100.093 12.994 98.8857 13.0001H19.24C16.8947 13.0001 15 14.9093 15 17.2725V65.8706C15 68.2337 16.8947 70.1429 19.24 70.1429H36.3722L47.7407 111.638C49.5692 118.327 55.6642 123 62.5542 123C66.4895 123 70.1597 121.425 72.876 118.541C75.5922 115.67 76.9835 111.905 76.7847 107.94L75.9897 91.5314H107.776C109.38 91.5314 110.943 91.1042 112.321 90.2897C117.674 87.1522 121 81.4647 121 75.47C121 71.6916 119.768 68.0601 117.542 65.0962ZM24.54 60.5168V22.5996H35.2725V60.5168H24.54ZM107.644 81.932H65.986L67.258 108.421C67.3375 110.009 66.6352 111.505 65.3235 112.493C64.5152 113.093 63.5215 113.401 62.5277 113.387C61.2582 113.375 60.0268 112.948 59.0186 112.17C58.0104 111.393 57.2797 110.306 56.9362 109.075L43.7525 60.944V22.5996H98.793C100.117 23.1977 101.242 24.1685 102.032 25.3954C102.822 26.6223 103.243 28.053 103.245 29.5154C103.245 30.8105 102.94 32.0388 102.331 33.1603L100.489 36.5515L103.391 39.0882C104.207 39.801 104.862 40.6827 105.31 41.6734C105.759 42.6641 105.99 43.7404 105.988 44.8292C105.988 46.1242 105.683 47.3525 105.073 48.474L103.232 51.8652L106.133 54.4019C106.95 55.1147 107.605 55.9965 108.053 56.9871C108.501 57.9778 108.732 59.0542 108.73 60.1429C108.73 61.438 108.426 62.6663 107.816 63.7878L105.961 67.1923L108.863 69.729C109.68 70.4418 110.334 71.3236 110.783 72.3142C111.231 73.3049 111.462 74.3813 111.46 75.47C111.46 78.0201 110.002 80.4767 107.644 81.932Z" fill="#E86565"/>
</svg>
