<svg width="646" height="479" viewBox="0 0 646 479" fill="none" xmlns="http://www.w3.org/2000/svg">
<g clip-path="url(#clip0)">
<path fill-rule="evenodd" clip-rule="evenodd" d="M375.078 124.876L383.133 115.228L412.156 132.247C413.378 132.964 414.411 133.962 415.17 135.159C415.928 136.356 416.389 137.716 416.514 139.127L416.57 139.747C416.673 140.911 417.006 142.043 417.548 143.078C418.089 144.113 418.83 145.032 419.727 145.78L474.787 191.75L482.634 188.322C484.147 187.663 485.813 187.438 487.446 187.673C489.08 187.907 490.615 188.591 491.882 189.649L524.26 216.682C526.068 218.192 527.203 220.359 527.414 222.706C527.625 225.053 526.896 227.388 525.386 229.197L512.611 244.499C511.1 246.307 508.933 247.442 506.586 247.653C504.239 247.865 501.904 247.135 500.095 245.625L467.717 218.593C466.45 217.536 465.502 216.147 464.98 214.581C464.458 213.016 464.382 211.337 464.76 209.73L466.732 201.397L411.672 155.428C409.863 153.917 407.528 153.187 405.181 153.398L404.552 153.454C403.143 153.581 401.724 153.37 400.412 152.838C399.101 152.305 397.936 151.468 397.014 150.394L375.078 124.876ZM483.259 201.213C482.353 200.457 481.184 200.091 480.008 200.197C478.833 200.303 477.748 200.871 476.992 201.777C476.236 202.683 475.87 203.852 475.976 205.027C476.082 206.202 476.65 207.288 477.556 208.044L506.499 232.208C507.405 232.965 508.574 233.33 509.749 233.224C510.924 233.119 512.009 232.55 512.766 231.645C513.522 230.739 513.887 229.57 513.782 228.394C513.676 227.219 513.108 226.134 512.202 225.378L483.259 201.213Z" fill="#2F303E"/>
</g>
<g clip-path="url(#clip1)">
<path d="M114.986 427.208L79.6728 366.044L50.6212 382.817L85.9341 443.981C86.4211 444.823 87.1269 445.518 87.9768 445.991L113.76 458.63L115.704 429.987C115.721 429.012 115.472 428.05 114.986 427.208ZM68.273 346.299C66.8476 343.831 64.5004 342.03 61.7476 341.292C58.9948 340.555 56.0617 340.941 53.5933 342.365L43.1547 348.392C40.6868 349.817 38.8861 352.165 38.1484 354.917C37.4108 357.67 37.7967 360.603 39.2213 363.072L45.2481 373.51L74.2997 356.737L68.273 346.299Z" fill="#343440"/>
</g>
<g clip-path="url(#clip2)">
<path fill-rule="evenodd" clip-rule="evenodd" d="M99.6134 31.9124L117.773 54.9842L125.511 48.8932L107.352 25.8214C106.396 24.5766 105.201 23.5354 103.837 22.7589C102.473 21.9825 100.968 21.4864 99.4088 21.2997C97.85 21.1131 96.2695 21.2397 94.7599 21.6722C93.2504 22.1046 91.8423 22.8341 90.6182 23.8179L64.614 44.285C59.361 48.4196 58.5792 55.7071 62.7112 60.957L71.3894 71.983L58.7812 81.9066L56.7265 79.2959L53.3999 81.9141C49.6654 79.4033 45.9208 78.6181 44.3821 79.8293L60.3773 100.152C61.912 98.9438 62.0356 95.1536 60.5015 90.9705L63.8443 88.3394L61.7896 85.7287L74.3978 75.8052L80.8158 83.9594L88.7301 77.7303L82.3121 69.5761L90.8509 62.8554C91.0009 62.962 91.1357 63.0408 91.276 63.1352L94.1848 66.8309L97.8216 63.9685L88.5237 52.1552L84.8869 55.0176L87.6256 58.4972C87.6922 58.6826 87.7436 58.8403 87.8239 59.0347L79.2973 65.7457L70.6191 54.7197C70.336 54.3578 70.2077 53.8986 70.2623 53.4423C70.3168 52.986 70.5496 52.5697 70.91 52.2843L97.1795 31.6083C97.5443 31.3299 98.0037 31.2057 98.4589 31.2626C98.9141 31.3195 99.3287 31.5528 99.6134 31.9124Z" fill="#2F303E"/>
</g>
<path d="M616.557 10.7417L612.595 12.8164C612.595 12.8164 605.84 16.4231 597.897 21.2964C589.954 26.1757 580.792 31.9958 574.9 37.8823C565.973 46.8086 558.41 58.1473 554.737 63.3282L553.41 62.0073L549.08 57.8639L544.743 62.0073L529.852 77.0854L525.522 81.4219L529.858 85.5714L534.563 90.2758L492.344 132.495L479.533 138.906L478.587 140.794L466.524 165.106L464.642 168.875L467.658 172.078L473.689 177.922L476.705 180.938L480.661 179.05L506.674 166.046L513.079 153.23L555.298 111.011L560.014 115.728L564.158 120.058L568.494 115.728L583.572 100.83L587.716 96.5L583.572 92.1636L582.252 90.8427C587.246 87.3567 598.011 80.3604 607.697 70.6803C620.303 58.0749 632.763 32.9849 632.763 32.9849L634.838 29.0224L631.822 25.8259L619.76 13.7634L616.557 10.7417ZM614.296 25.6329L619.947 31.2902C616.931 36.7304 607.179 53.8591 599.025 62.0073C588.753 72.2785 569.815 85.5654 569.815 85.5654L563.784 89.5279L568.868 94.8053L570.569 96.5L564.158 102.911L563.591 102.531L559.447 98.1948L547.385 86.1323L543.049 81.9889L542.669 81.4219L549.08 75.0107L555.865 81.8019L560.014 75.7706C560.014 75.7706 574.357 55.765 583.572 46.5553C587.74 42.3816 596.672 36.1634 604.302 31.4771C607.58 29.4395 610.912 27.4907 614.296 25.6329ZM543.049 99.1417L546.444 102.531L503.845 145.13L503.278 145.884L502.712 146.825L497.627 157L479.72 165.859L488.58 147.953L498.755 142.868L499.702 142.301L500.456 141.734L543.049 99.1417Z" fill="black"/>
<defs>
<clipPath id="clip0">
<rect width="142.193" height="142.193" fill="white" transform="translate(374.282 116.025) rotate(-5.14162)"/>
</clipPath>
<clipPath id="clip1">
<rect width="128.974" height="128.974" fill="white" transform="translate(0.579773 444.994) rotate(-75)"/>
</clipPath>
<clipPath id="clip2">
<rect width="88.2488" height="83.1081" fill="white" transform="translate(87.3064) rotate(51.7947)"/>
</clipPath>
</defs>
</svg>
