<svg width="106" height="106" viewBox="0 0 106 106" fill="none" xmlns="http://www.w3.org/2000/svg">
<rect width="106" height="106" fill="white"/>
<path d="M64 45.6667L63.1516 44.724L61.6 46.448V41H60.4V46.448L58.8484 44.724L58 45.6667L61 49L64 45.6667Z" fill="#FECC00"/>
<path d="M55.5998 47.5714H47.6V30.4288H53.9999V34.7145C54.0011 35.093 54.1701 35.4557 54.4699 35.7234C54.7697 35.991 55.1759 36.1419 55.5998 36.143H60.3998V38.2858H61.9997V34.7145C62.0026 34.6206 61.9826 34.5273 61.9411 34.441C61.8997 34.3547 61.8378 34.2774 61.7597 34.2145L56.1598 29.2145C56.0894 29.1448 56.0029 29.0895 55.9062 29.0525C55.8095 29.0155 55.705 28.9977 55.5998 29.0002H47.6C47.176 29.0014 46.7698 29.1522 46.47 29.4199C46.1702 29.6876 46.0013 30.0503 46 30.4288V47.5714C46.0013 47.95 46.1702 48.3127 46.47 48.5803C46.7698 48.848 47.176 48.9989 47.6 49H55.5998V47.5714ZM55.5998 30.7145L60.0798 34.7145H55.5998V30.7145Z" fill="#FECC00"/>
<path d="M31.9496 63.34C32.423 63.4467 32.793 63.65 33.0596 63.95C33.333 64.25 33.4696 64.6133 33.4696 65.04C33.4696 65.4467 33.3463 65.8033 33.0996 66.11C32.853 66.4167 32.5263 66.65 32.1196 66.81C31.713 66.97 31.273 67.05 30.7996 67.05C30.3396 67.05 29.8863 66.97 29.4396 66.81C28.9996 66.65 28.6063 66.4133 28.2596 66.1L28.4696 65.74C28.7763 66.0267 29.1263 66.2433 29.5196 66.39C29.9196 66.53 30.3263 66.6 30.7396 66.6C31.133 66.6 31.4996 66.5367 31.8396 66.41C32.1796 66.2767 32.4496 66.09 32.6496 65.85C32.8496 65.6033 32.9496 65.3133 32.9496 64.98C32.9496 64.5333 32.7763 64.19 32.4296 63.95C32.083 63.7033 31.5963 63.58 30.9696 63.58H29.5296V63.14H30.9496C31.483 63.14 31.8996 63.0267 32.1996 62.8C32.4996 62.5667 32.6496 62.2467 32.6496 61.84C32.6496 61.3867 32.4596 61.03 32.0796 60.77C31.7063 60.5033 31.2396 60.37 30.6796 60.37C30.3396 60.37 29.9963 60.42 29.6496 60.52C29.3096 60.62 28.983 60.7733 28.6696 60.98L28.4796 60.55C28.8263 60.3367 29.1863 60.1767 29.5596 60.07C29.9396 59.9633 30.3163 59.91 30.6896 59.91C31.143 59.91 31.5563 59.9867 31.9296 60.14C32.3096 60.2867 32.6096 60.5033 32.8296 60.79C33.0563 61.07 33.1696 61.4 33.1696 61.78C33.1696 62.16 33.0596 62.4867 32.8396 62.76C32.6263 63.0333 32.3296 63.2267 31.9496 63.34ZM37.0082 61.74C37.6549 61.74 38.1516 61.9067 38.4982 62.24C38.8449 62.5667 39.0182 63.05 39.0182 63.69V67H38.5382V66.07C38.3716 66.3767 38.1282 66.6167 37.8082 66.79C37.4882 66.9567 37.1049 67.04 36.6582 67.04C36.0782 67.04 35.6182 66.9033 35.2782 66.63C34.9449 66.3567 34.7782 65.9967 34.7782 65.55C34.7782 65.1167 34.9316 64.7667 35.2382 64.5C35.5516 64.2267 36.0482 64.09 36.7282 64.09H38.5182V63.67C38.5182 63.1833 38.3849 62.8133 38.1182 62.56C37.8582 62.3067 37.4749 62.18 36.9682 62.18C36.6216 62.18 36.2882 62.24 35.9682 62.36C35.6549 62.48 35.3882 62.64 35.1682 62.84L34.9182 62.48C35.1782 62.2467 35.4916 62.0667 35.8582 61.94C36.2249 61.8067 36.6082 61.74 37.0082 61.74ZM36.7282 66.63C37.1616 66.63 37.5282 66.53 37.8282 66.33C38.1349 66.13 38.3649 65.84 38.5182 65.46V64.48H36.7382C36.2249 64.48 35.8516 64.5733 35.6182 64.76C35.3916 64.9467 35.2782 65.2033 35.2782 65.53C35.2782 65.87 35.4049 66.14 35.6582 66.34C35.9116 66.5333 36.2682 66.63 36.7282 66.63ZM44.6197 62.23H41.5497V67H41.0497V61.78H44.6197V62.23ZM48.3184 61.74C48.8051 61.74 49.2451 61.8533 49.6384 62.08C50.0317 62.3067 50.3384 62.62 50.5584 63.02C50.7851 63.42 50.8984 63.8767 50.8984 64.39C50.8984 64.9033 50.7851 65.3633 50.5584 65.77C50.3384 66.17 50.0317 66.4833 49.6384 66.71C49.2451 66.93 48.8051 67.04 48.3184 67.04C47.8584 67.04 47.4417 66.9333 47.0684 66.72C46.6951 66.5 46.4051 66.1967 46.1984 65.81V68.94H45.6984V61.78H46.1784V63.01C46.3851 62.61 46.6751 62.3 47.0484 62.08C47.4284 61.8533 47.8517 61.74 48.3184 61.74ZM48.2884 66.59C48.6884 66.59 49.0484 66.4967 49.3684 66.31C49.6884 66.1233 49.9384 65.8633 50.1184 65.53C50.3051 65.1967 50.3984 64.8167 50.3984 64.39C50.3984 63.9633 50.3051 63.5833 50.1184 63.25C49.9384 62.9167 49.6884 62.6567 49.3684 62.47C49.0484 62.2833 48.6884 62.19 48.2884 62.19C47.8884 62.19 47.5284 62.2833 47.2084 62.47C46.8951 62.6567 46.6451 62.9167 46.4584 63.25C46.2784 63.5833 46.1884 63.9633 46.1884 64.39C46.1884 64.8167 46.2784 65.1967 46.4584 65.53C46.6451 65.8633 46.8951 66.1233 47.2084 66.31C47.5284 66.4967 47.8884 66.59 48.2884 66.59ZM56.6279 61.78L53.9479 67.71C53.7479 68.17 53.5145 68.4967 53.2479 68.69C52.9879 68.8833 52.6779 68.98 52.3179 68.98C52.0779 68.98 51.8512 68.94 51.6379 68.86C51.4312 68.78 51.2545 68.6633 51.1079 68.51L51.3579 68.13C51.6245 68.4033 51.9479 68.54 52.3279 68.54C52.5812 68.54 52.7979 68.47 52.9779 68.33C53.1579 68.19 53.3245 67.95 53.4779 67.61L53.7579 66.98L51.4079 61.78H51.9379L54.0279 66.45L56.1179 61.78H56.6279ZM60.0101 64.28C60.3968 64.3533 60.6935 64.5 60.9001 64.72C61.1135 64.9333 61.2201 65.1967 61.2201 65.51C61.2201 65.8167 61.1168 66.0867 60.9101 66.32C60.7101 66.5533 60.4368 66.7333 60.0901 66.86C59.7435 66.9867 59.3668 67.05 58.9601 67.05C58.5868 67.05 58.2201 66.9933 57.8601 66.88C57.5068 66.76 57.1968 66.59 56.9301 66.37L57.1301 66C57.3635 66.2 57.6401 66.3533 57.9601 66.46C58.2868 66.5667 58.6168 66.62 58.9501 66.62C59.4435 66.62 59.8601 66.5167 60.2001 66.31C60.5401 66.0967 60.7101 65.8167 60.7101 65.47C60.7101 65.1633 60.5668 64.9233 60.2801 64.75C60.0001 64.57 59.6201 64.48 59.1401 64.48H58.3001V64.1H59.1201C59.5401 64.1 59.8835 64.0167 60.1501 63.85C60.4235 63.6833 60.5601 63.46 60.5601 63.18C60.5601 62.8533 60.4101 62.6033 60.1101 62.43C59.8168 62.25 59.4401 62.16 58.9801 62.16C58.3935 62.16 57.8401 62.31 57.3201 62.61L57.1701 62.21C57.7568 61.8833 58.3801 61.72 59.0401 61.72C59.6201 61.72 60.1035 61.8467 60.4901 62.1C60.8768 62.3467 61.0701 62.6833 61.0701 63.11C61.0701 63.3833 60.9735 63.6233 60.7801 63.83C60.5868 64.0367 60.3301 64.1867 60.0101 64.28ZM62.9638 61.78H63.4638V66.23L67.1838 61.78H67.6238V67H67.1238V62.55L63.4038 67H62.9638V61.78ZM73.2702 62.23H71.2302V67H70.7302V62.23H68.6902V61.78H73.2702V62.23ZM78.5466 64.51H74.0566C74.0699 64.9167 74.1733 65.28 74.3666 65.6C74.5599 65.9133 74.8199 66.1567 75.1466 66.33C75.4799 66.5033 75.8533 66.59 76.2666 66.59C76.6066 66.59 76.9199 66.53 77.2066 66.41C77.4999 66.2833 77.7433 66.1 77.9366 65.86L78.2266 66.19C77.9999 66.4633 77.7133 66.6733 77.3666 66.82C77.0266 66.9667 76.6566 67.04 76.2566 67.04C75.7366 67.04 75.2733 66.9267 74.8666 66.7C74.4599 66.4733 74.1399 66.16 73.9066 65.76C73.6799 65.36 73.5666 64.9033 73.5666 64.39C73.5666 63.8833 73.6733 63.43 73.8866 63.03C74.1066 62.6233 74.4066 62.3067 74.7866 62.08C75.1666 61.8533 75.5933 61.74 76.0666 61.74C76.5399 61.74 76.9633 61.8533 77.3366 62.08C77.7166 62.3 78.0133 62.61 78.2266 63.01C78.4466 63.41 78.5566 63.8633 78.5566 64.37L78.5466 64.51ZM76.0666 62.18C75.6999 62.18 75.3699 62.2633 75.0766 62.43C74.7833 62.59 74.5466 62.82 74.3666 63.12C74.1933 63.4133 74.0933 63.7467 74.0666 64.12H78.0666C78.0466 63.7467 77.9466 63.4133 77.7666 63.12C77.5866 62.8267 77.3499 62.5967 77.0566 62.43C76.7633 62.2633 76.4333 62.18 76.0666 62.18ZM48.4232 76.38C48.4232 77.2 48.1565 77.8433 47.6232 78.31C47.0899 78.77 46.3365 79.0167 45.3632 79.05V80.94H44.8732V79.05C43.8999 79.0167 43.1465 78.77 42.6132 78.31C42.0799 77.8433 41.8132 77.2 41.8132 76.38C41.8132 75.5733 42.0799 74.94 42.6132 74.48C43.1532 74.02 43.9065 73.7733 44.8732 73.74V71.58H45.3632V73.74C46.3365 73.7733 47.0899 74.02 47.6232 74.48C48.1565 74.94 48.4232 75.5733 48.4232 76.38ZM42.3132 76.38C42.3132 77.0533 42.5332 77.5833 42.9732 77.97C43.4132 78.3567 44.0465 78.5667 44.8732 78.6V74.19C44.0465 74.2233 43.4132 74.43 42.9732 74.81C42.5332 75.19 42.3132 75.7133 42.3132 76.38ZM45.3632 78.6C46.1899 78.5667 46.8232 78.36 47.2632 77.98C47.7099 77.5933 47.9332 77.06 47.9332 76.38C47.9332 75.7133 47.7099 75.19 47.2632 74.81C46.8232 74.43 46.1899 74.2233 45.3632 74.19V78.6ZM52.119 79.04C51.6257 79.04 51.179 78.9267 50.779 78.7C50.3857 78.4733 50.0757 78.16 49.849 77.76C49.6223 77.3533 49.509 76.8967 49.509 76.39C49.509 75.8833 49.6223 75.43 49.849 75.03C50.0757 74.6233 50.3857 74.3067 50.779 74.08C51.179 73.8533 51.6257 73.74 52.119 73.74C52.6123 73.74 53.0557 73.8533 53.449 74.08C53.849 74.3067 54.1623 74.6233 54.389 75.03C54.6157 75.43 54.729 75.8833 54.729 76.39C54.729 76.8967 54.6157 77.3533 54.389 77.76C54.1623 78.16 53.849 78.4733 53.449 78.7C53.0557 78.9267 52.6123 79.04 52.119 79.04ZM52.119 78.59C52.519 78.59 52.8757 78.4967 53.189 78.31C53.509 78.1233 53.759 77.8633 53.939 77.53C54.1257 77.1967 54.219 76.8167 54.219 76.39C54.219 75.9633 54.1257 75.5833 53.939 75.25C53.759 74.9167 53.509 74.6567 53.189 74.47C52.8757 74.2833 52.519 74.19 52.119 74.19C51.719 74.19 51.359 74.2833 51.039 74.47C50.7257 74.6567 50.4757 74.9167 50.289 75.25C50.109 75.5833 50.019 75.9633 50.019 76.39C50.019 76.8167 50.109 77.1967 50.289 77.53C50.4757 77.8633 50.7257 78.1233 51.039 78.31C51.359 78.4967 51.719 78.59 52.119 78.59ZM59.652 74.23H57.612V79H57.112V74.23H55.072V73.78H59.652V74.23ZM62.5584 79.04C62.0651 79.04 61.6184 78.9267 61.2184 78.7C60.8251 78.4733 60.5151 78.16 60.2884 77.76C60.0618 77.3533 59.9484 76.8967 59.9484 76.39C59.9484 75.8833 60.0618 75.43 60.2884 75.03C60.5151 74.6233 60.8251 74.3067 61.2184 74.08C61.6184 73.8533 62.0651 73.74 62.5584 73.74C63.0518 73.74 63.4951 73.8533 63.8884 74.08C64.2884 74.3067 64.6018 74.6233 64.8284 75.03C65.0551 75.43 65.1684 75.8833 65.1684 76.39C65.1684 76.8967 65.0551 77.3533 64.8284 77.76C64.6018 78.16 64.2884 78.4733 63.8884 78.7C63.4951 78.9267 63.0518 79.04 62.5584 79.04ZM62.5584 78.59C62.9584 78.59 63.3151 78.4967 63.6284 78.31C63.9484 78.1233 64.1984 77.8633 64.3784 77.53C64.5651 77.1967 64.6584 76.8167 64.6584 76.39C64.6584 75.9633 64.5651 75.5833 64.3784 75.25C64.1984 74.9167 63.9484 74.6567 63.6284 74.47C63.3151 74.2833 62.9584 74.19 62.5584 74.19C62.1584 74.19 61.7984 74.2833 61.4784 74.47C61.1651 74.6567 60.9151 74.9167 60.7284 75.25C60.5484 75.5833 60.4584 75.9633 60.4584 76.39C60.4584 76.8167 60.5484 77.1967 60.7284 77.53C60.9151 77.8633 61.1651 78.1233 61.4784 78.31C61.7984 78.4967 62.1584 78.59 62.5584 78.59Z" fill="black"/>
</svg>
