<svg width="24" height="24" viewBox="0 0 24 24" fill="none" xmlns="http://www.w3.org/2000/svg">
<g clip-path="url(#clip0)">
<path fill-rule="evenodd" clip-rule="evenodd" d="M12.0027 6.51968C11.9696 6.5051 11.9333 6.49907 11.8973 6.50217C11.8612 6.50526 11.8265 6.51737 11.7963 6.53738C11.7661 6.55739 11.7415 6.58467 11.7246 6.6167C11.7077 6.64873 11.6992 6.68448 11.6997 6.72068V8.45018C11.6997 8.6491 11.6207 8.83986 11.4801 8.98051C11.3394 9.12117 11.1487 9.20018 10.9497 9.20018C9.94924 9.20018 7.93024 9.20768 5.99974 10.4332C4.52374 11.3692 3.01474 13.0732 2.10724 16.2472C3.63724 14.7727 5.38474 13.9732 6.91474 13.5502C7.85517 13.2905 8.82165 13.1365 9.79624 13.0912C10.1952 13.0737 10.5947 13.0777 10.9932 13.1032H11.0127L11.0202 13.1047H11.0217L10.9497 13.8502L11.0247 13.1032C11.2099 13.1218 11.3815 13.2085 11.5062 13.3466C11.6309 13.4846 11.6999 13.6641 11.6997 13.8502V15.5797C11.6997 15.7417 11.8647 15.8437 12.0027 15.7807L17.9787 11.3812C17.999 11.3661 18.02 11.3521 18.0417 11.3392C18.0744 11.3196 18.1013 11.2919 18.1201 11.2588C18.1388 11.2256 18.1487 11.1882 18.1487 11.1502C18.1487 11.1121 18.1388 11.0747 18.1201 11.0416C18.1013 11.0085 18.0744 10.9808 18.0417 10.9612C18.02 10.9483 17.999 10.9342 17.9787 10.9192L12.0027 6.51968ZM10.1997 14.5792C9.22461 14.5961 8.25549 14.7357 7.31524 14.9947C5.32624 15.5467 2.97124 16.7962 1.40524 19.6147C1.32055 19.7667 1.18561 19.8846 1.02355 19.9481C0.861492 20.0116 0.682397 20.0167 0.516961 19.9626C0.351524 19.9086 0.210048 19.7986 0.116778 19.6517C0.0235085 19.5047 -0.0157477 19.3299 0.00573754 19.1572C0.701738 13.5922 2.83474 10.6642 5.19574 9.16718C7.06324 7.98218 8.98624 7.75418 10.1997 7.71068V6.72068C10.1996 6.41179 10.2828 6.10858 10.4407 5.84305C10.5985 5.57753 10.8251 5.35953 11.0965 5.21207C11.368 5.06461 11.6742 4.99314 11.9828 5.00522C12.2915 5.01729 12.5912 5.11246 12.8502 5.28068L18.8412 9.69068C19.0889 9.84529 19.2932 10.0604 19.4348 10.3157C19.5764 10.571 19.6507 10.8582 19.6507 11.1502C19.6507 11.4422 19.5764 11.7293 19.4348 11.9847C19.2932 12.24 19.0889 12.4551 18.8412 12.6097L12.8502 17.0197C12.5912 17.1879 12.2915 17.2831 11.9828 17.2951C11.6742 17.3072 11.368 17.2358 11.0965 17.0883C10.8251 16.9408 10.5985 16.7228 10.4407 16.4573C10.2828 16.1918 10.1996 15.8886 10.1997 15.5797V14.5792Z" fill="white"/>
<path fill-rule="evenodd" clip-rule="evenodd" d="M16.3018 5.43959C16.3603 5.3601 16.4338 5.29292 16.5182 5.2419C16.6027 5.19088 16.6963 5.15701 16.7939 5.14224C16.8914 5.12747 16.9909 5.13209 17.0866 5.15583C17.1824 5.17957 17.2725 5.22196 17.3518 5.28058L23.3413 9.69059C23.589 9.84519 23.7933 10.0603 23.9349 10.3156C24.0765 10.5709 24.1508 10.8581 24.1508 11.1501C24.1508 11.4421 24.0765 11.7292 23.9349 11.9846C23.7933 12.2399 23.589 12.455 23.3413 12.6096L17.3503 17.0196C17.19 17.1333 16.9914 17.1795 16.7974 17.1483C16.6033 17.1171 16.4292 17.0109 16.3126 16.8526C16.1961 16.6944 16.1463 16.4967 16.174 16.3021C16.2017 16.1075 16.3047 15.9315 16.4608 15.8121L22.4788 11.3811C22.4991 11.366 22.5201 11.352 22.5418 11.3391C22.5745 11.3195 22.6014 11.2918 22.6202 11.2587C22.6389 11.2255 22.6488 11.1881 22.6488 11.1501C22.6488 11.112 22.6389 11.0746 22.6202 11.0415C22.6014 11.0084 22.5745 10.9807 22.5418 10.9611C22.5201 10.9482 22.4991 10.9341 22.4788 10.9191L16.4608 6.48809C16.3007 6.37011 16.1941 6.19338 16.1642 5.99676C16.1344 5.80014 16.1839 5.59972 16.3018 5.43959Z" fill="white"/>
</g>
<defs>
<clipPath id="clip0">
<rect width="24" height="24" fill="white"/>
</clipPath>
</defs>
</svg>
