<svg width="136" height="136" viewBox="0 0 136 136" fill="none" xmlns="http://www.w3.org/2000/svg">
<path d="M42.5 61L54.5 21L70 24V50H90.75H115L106.5 119H18V76.5L40 69.5L42.5 61Z" fill="white"/>
<path d="M117.659 70.882C119.89 67.9335 121.125 64.321 121.125 60.5625C121.125 54.5992 117.791 48.9546 112.426 45.807C111.044 44.9968 109.472 44.5703 107.87 44.5718H76.0219L76.8188 28.2492C77.0047 24.3046 75.6102 20.5593 72.9008 17.7039C71.5711 16.2964 69.967 15.1766 68.1875 14.4136C66.408 13.6507 64.4909 13.2607 62.5547 13.2679C55.6484 13.2679 49.5391 17.9164 47.7063 24.5703L36.2977 65.875H19.125C16.7742 65.875 14.875 67.7742 14.875 70.125V118.469C14.875 120.819 16.7742 122.719 19.125 122.719H98.9852C100.207 122.719 101.402 122.48 102.505 122.002C108.827 119.305 112.904 113.13 112.904 106.277C112.904 104.603 112.665 102.956 112.187 101.362C114.418 98.414 115.653 94.8015 115.653 91.0429C115.653 89.3695 115.414 87.7226 114.936 86.1289C117.167 83.1804 118.402 79.5679 118.402 75.8093C118.376 74.1359 118.137 72.4757 117.659 70.882ZM24.4375 113.156V75.4375H35.1953V113.156H24.4375ZM108.959 66.2734L106.051 68.7968L107.897 72.1703C108.505 73.2815 108.82 74.5293 108.813 75.796C108.813 77.9874 107.857 80.0726 106.21 81.507L103.302 84.0304L105.148 87.4039C105.756 88.5151 106.071 89.7629 106.064 91.0296C106.064 93.221 105.108 95.3062 103.461 96.7406L100.552 99.264L102.398 102.637C103.007 103.749 103.322 104.996 103.315 106.263C103.315 109.238 101.562 111.921 98.8523 113.143H43.6953V75.0125L56.9102 27.1335C57.2509 25.9064 57.9824 24.8237 58.9938 24.0496C60.0051 23.2755 61.2413 22.8521 62.5148 22.8437C63.5242 22.8437 64.5203 23.1359 65.3172 23.7335C66.632 24.7164 67.3359 26.2039 67.2562 27.7843L65.9812 54.1343H107.738C110.102 55.582 111.562 58.0257 111.562 60.5625C111.562 62.7539 110.606 64.8257 108.959 66.2734Z" fill="#219F0C"/>
</svg>
