<svg width="22" height="22" viewBox="0 0 22 22" fill="none" xmlns="http://www.w3.org/2000/svg">
<path d="M10.8646 14.2012C10.8807 14.2217 10.9013 14.2383 10.9247 14.2498C10.9482 14.2612 10.9739 14.2671 11 14.2671C11.0261 14.2671 11.0518 14.2612 11.0753 14.2498C11.0987 14.2383 11.1193 14.2217 11.1354 14.2012L13.5416 11.1568C13.6297 11.0451 13.5502 10.8797 13.4062 10.8797H11.8143V3.60938C11.8143 3.51484 11.7369 3.4375 11.6424 3.4375H10.3533C10.2588 3.4375 10.1814 3.51484 10.1814 3.60938V10.8775H8.59375C8.4498 10.8775 8.37031 11.043 8.4584 11.1547L10.8646 14.2012ZM18.8633 13.4492H17.5742C17.4797 13.4492 17.4023 13.5266 17.4023 13.6211V16.9297H4.59766V13.6211C4.59766 13.5266 4.52031 13.4492 4.42578 13.4492H3.13672C3.04219 13.4492 2.96484 13.5266 2.96484 13.6211V17.875C2.96484 18.2553 3.27207 18.5625 3.65234 18.5625H18.3477C18.7279 18.5625 19.0352 18.2553 19.0352 17.875V13.6211C19.0352 13.5266 18.9578 13.4492 18.8633 13.4492Z" fill="#FECC00"/>
</svg>
