<svg width="24" height="14" viewBox="0 0 24 14" fill="none" xmlns="http://www.w3.org/2000/svg">
<path d="M11.701 13.771H13.138C13.138 13.771 13.571 13.724 13.792 13.487C14.002 13.266 14.002 12.857 14.002 12.857C14.002 12.857 13.971 10.93 14.871 10.647C15.758 10.366 16.883 12.507 18.082 13.33C18.998 13.959 19.687 13.824 19.687 13.824L22.898 13.78C22.898 13.78 24.58 13.675 23.785 12.354C23.724 12.249 23.334 11.379 21.414 9.59405C19.402 7.73305 19.672 8.03305 22.09 4.80705C23.559 2.84205 24.16 1.64105 23.965 1.13105C23.799 0.651047 22.705 0.770047 22.705 0.770047L19.103 0.801047C19.103 0.801047 18.833 0.770047 18.638 0.891047C18.443 1.01005 18.324 1.28205 18.324 1.28205C18.324 1.28205 17.752 2.81105 16.988 4.10205C15.365 6.83105 14.72 6.98105 14.465 6.80105C13.861 6.41005 14.016 5.22105 14.016 4.36905C14.016 1.72805 14.42 0.619047 13.235 0.334047C12.845 0.243047 12.554 0.184047 11.55 0.168047C10.26 0.154047 9.17202 0.178047 8.55502 0.479047C8.15002 0.682047 7.83502 1.13105 8.01602 1.15405C8.25602 1.18405 8.79502 1.30005 9.08002 1.69105C9.45502 2.19705 9.43902 3.32705 9.43902 3.32705C9.43902 3.32705 9.65002 6.44305 8.94502 6.83005C8.45002 7.09205 7.79002 6.55005 6.35002 4.07405C5.61502 2.81405 5.05902 1.40405 5.05902 1.40405C5.05902 1.40405 4.95402 1.14805 4.76002 0.998047C4.53302 0.833047 4.20302 0.773047 4.20302 0.773047L0.768022 0.803047C0.768022 0.803047 0.258022 0.819047 0.0790218 1.04305C-0.0869782 1.23805 0.0630218 1.65805 0.0630218 1.65805C0.0630218 1.65805 2.74902 7.94505 5.79502 11.111C8.58502 14.013 11.751 13.826 11.751 13.826L11.701 13.771Z" fill="#fff"/>
</svg>
