<svg width="20" height="20" viewBox="0 0 20 20" fill="none" xmlns="http://www.w3.org/2000/svg">
<path d="M10.7171 9.99701L16.1017 4.61033C16.1967 4.51492 16.25 4.38578 16.2499 4.25118C16.2498 4.11659 16.1963 3.98751 16.1012 3.89223C15.9108 3.70291 15.5755 3.70195 15.3832 3.89319L10 9.27987L4.61492 3.89175C4.42357 3.70291 4.08822 3.70386 3.89783 3.89271C3.85057 3.93975 3.81316 3.99573 3.78778 4.05737C3.7624 4.11902 3.74956 4.1851 3.75001 4.25176C3.75001 4.38754 3.80263 4.51471 3.89783 4.6089L9.28244 9.99653L3.89831 15.3846C3.8033 15.4802 3.75009 15.6095 3.75036 15.7442C3.75063 15.8789 3.80435 16.008 3.89974 16.1032C3.99207 16.1945 4.12267 16.2471 4.25757 16.2471H4.26044C4.39582 16.2467 4.52642 16.1936 4.61683 16.1013L10 10.7146L15.3851 16.1027C15.4803 16.1974 15.6075 16.25 15.7424 16.25C15.8091 16.2502 15.8752 16.2372 15.9369 16.2118C15.9986 16.1863 16.0546 16.149 16.1018 16.1018C16.1489 16.0547 16.1863 15.9987 16.2117 15.9371C16.2372 15.8755 16.2502 15.8094 16.25 15.7427C16.25 15.6074 16.1974 15.4798 16.1017 15.3856L10.7171 9.99701Z" fill="#FECC00"/>
</svg>
