<svg width="20" height="20" viewBox="0 0 20 20" fill="none" xmlns="http://www.w3.org/2000/svg">
<path d="M17.1426 14.7619L16.5366 14.0886L15.4284 15.32V11.4286H14.5712V15.32L13.4629 14.0886L12.8569 14.7619L14.9998 17.1429L17.1426 14.7619Z" fill="#FECC00"/>
<path d="M11.1427 16.1225H5.42848V3.87775H9.99984V6.93893C10.0007 7.20931 10.1214 7.46838 10.3356 7.65957C10.5497 7.85076 10.8399 7.95852 11.1427 7.95933H14.5712V9.48992H15.714V6.93893C15.716 6.87188 15.7018 6.80524 15.6722 6.74358C15.6426 6.68193 15.5984 6.62673 15.5426 6.5818L11.5427 3.01041C11.4924 2.96059 11.4305 2.9211 11.3615 2.89468C11.2924 2.86825 11.2178 2.85552 11.1427 2.85735H5.42848C5.12566 2.85816 4.8355 2.96592 4.62137 3.15711C4.40725 3.3483 4.28655 3.60737 4.28564 3.87775V16.1225C4.28655 16.3929 4.40725 16.6519 4.62137 16.8431C4.8355 17.0343 5.12566 17.1421 5.42848 17.1429H11.1427V16.1225ZM11.1427 4.08183L14.3426 6.93893H11.1427V4.08183Z" fill="#FECC00"/>
</svg>
