<svg width="133" height="93" viewBox="0 0 133 93" fill="none" xmlns="http://www.w3.org/2000/svg">
<path d="M130.223 14.3602C129.452 11.5967 127.982 9.07887 125.954 7.05009C123.927 5.02131 121.41 3.55019 118.648 2.77893C108.281 7.96318e-05 66.5592 7.86818e-05 66.5592 7.86818e-05C66.5592 7.86818e-05 24.9424 -0.0553863 14.4703 2.77893C11.7082 3.55019 9.1917 5.02131 7.16397 7.05009C5.13624 9.07887 3.66588 11.5967 2.89502 14.3602C0.929886 24.9793 -0.0389361 35.7588 0.0011974 46.5583C-0.0313491 57.317 0.937441 68.0553 2.89502 78.6343C3.66588 81.3978 5.13624 83.9157 7.16397 85.9445C9.1917 87.9732 11.7082 89.4444 14.4703 90.2156C24.826 93 66.5592 93 66.5592 93C66.5592 93 108.17 93 118.648 90.2156C121.41 89.4444 123.927 87.9732 125.954 85.9445C127.982 83.9157 129.452 81.3978 130.223 78.6343C132.14 68.0515 133.068 57.3132 132.995 46.5583C133.076 35.7627 132.148 24.9831 130.223 14.3602ZM53.2431 66.4761V26.5794L87.9691 46.5583L53.2431 66.4761Z" fill="white"/>
</svg>
