<svg width="40" height="40" viewBox="0 0 40 40" fill="none" xmlns="http://www.w3.org/2000/svg">
<path d="M20.0002 9.84619C17.0189 9.84619 14.5937 12.1972 14.5937 15.0875C14.5937 17.9775 17.0189 20.3275 20.0002 20.3275C22.9814 20.3275 25.4054 17.9775 25.4054 15.0875C25.4054 12.1972 22.9814 9.84619 20.0002 9.84619ZM20.0002 12.9171C21.2341 12.9171 22.2375 13.8912 22.2375 15.0875C22.2375 16.2833 21.2341 17.2566 20.0002 17.2566C18.7661 17.2566 17.7617 16.2833 17.7617 15.0875C17.7617 13.8912 18.7661 12.9171 20.0002 12.9171ZM15.5428 20.5058C15.0079 20.4978 14.4819 20.7534 14.1768 21.2248C13.7104 21.9431 13.9338 22.8908 14.6729 23.3425C15.6505 23.9372 16.7113 24.3591 17.8114 24.6022L14.7901 27.5329C14.1716 28.1329 14.1721 29.1046 14.7907 29.7046C15.1008 30.004 15.5052 30.1539 15.9107 30.1539C16.3157 30.1539 16.7215 30.0038 17.0306 29.7039L19.9989 26.8247L22.9699 29.7039C23.5879 30.3038 24.59 30.3038 25.2091 29.7039C25.8279 29.1044 25.8279 28.1316 25.2091 27.5329L22.1864 24.6029C23.2868 24.3597 24.348 23.9376 25.325 23.3426C26.0655 22.8908 26.2892 21.942 25.8231 21.2249C25.3564 20.5065 24.3793 20.2901 23.6382 20.7425C21.4248 22.0924 18.573 22.0915 16.3603 20.7425C16.1056 20.587 15.823 20.5101 15.5428 20.5058V20.5058Z" fill="white"/>
<rect x="0.5" y="0.5" width="39" height="39" stroke="white"/>
</svg>
