<svg width="129" height="40" viewBox="0 0 129 40" fill="none" xmlns="http://www.w3.org/2000/svg">
<path d="M22.16 38.3C20.92 37.46 20.03 36.16 19.51 34.39C18.99 32.62 18.72 30.27 18.72 27.33V23.33C18.72 20.36 19.02 17.98 19.62 16.18C20.22 14.38 21.16 13.07 22.43 12.25C23.7 11.43 25.37 11.01 27.44 11.01C29.48 11.01 31.11 11.43 32.34 12.27C33.57 13.11 34.47 14.42 35.04 16.2C35.61 17.98 35.89 20.36 35.89 23.32V27.32C35.89 30.26 35.61 32.62 35.06 34.4C34.51 36.18 33.61 37.49 32.36 38.31C31.12 39.13 29.43 39.55 27.3 39.55C25.12 39.56 23.4 39.14 22.16 38.3ZM29.13 33.98C29.47 33.08 29.65 31.61 29.65 29.58V20.99C29.65 19.01 29.48 17.57 29.13 16.65C28.79 15.74 28.18 15.28 27.31 15.28C26.47 15.28 25.88 15.74 25.53 16.65C25.19 17.56 25.01 19.01 25.01 20.99V29.58C25.01 31.62 25.17 33.09 25.5 33.98C25.83 34.88 26.43 35.33 27.3 35.33C28.18 35.33 28.78 34.88 29.13 33.98Z" fill="white"/>
<path d="M117.63 27.4V28.79C117.63 30.56 117.68 31.88 117.79 32.77C117.89 33.65 118.11 34.3 118.44 34.7C118.77 35.1 119.28 35.31 119.97 35.31C120.9 35.31 121.54 34.95 121.88 34.23C122.22 33.51 122.41 32.31 122.44 30.63L127.79 30.94C127.82 31.18 127.83 31.51 127.83 31.93C127.83 34.48 127.13 36.38 125.74 37.64C124.35 38.9 122.38 39.53 119.83 39.53C116.77 39.53 114.63 38.57 113.4 36.65C112.17 34.73 111.56 31.77 111.56 27.75V22.94C111.56 18.8 112.2 15.79 113.47 13.88C114.74 11.98 116.92 11.03 120.01 11.03C122.14 11.03 123.77 11.42 124.91 12.2C126.05 12.98 126.85 14.19 127.32 15.84C127.78 17.49 128.02 19.77 128.02 22.67V27.39H117.63V27.4ZM118.42 15.8C118.11 16.19 117.9 16.83 117.79 17.71C117.68 18.59 117.63 19.94 117.63 21.73V23.71H122.17V21.73C122.17 19.96 122.11 18.62 121.99 17.71C121.87 16.8 121.65 16.15 121.34 15.78C121.03 15.41 120.54 15.22 119.88 15.22C119.22 15.21 118.73 15.41 118.42 15.8Z" fill="white"/>
<path d="M7.06 26.8799L0 1.38988H6.16L8.63 12.9399C9.26 15.7899 9.72 18.2099 10.02 20.2199H10.2C10.41 18.7799 10.87 16.3699 11.59 12.9799L14.15 1.37988H20.31L13.17 26.8799V39.1099H7.06V26.8799Z" fill="white"/>
<path d="M55.92 11.55V39.1H51.07L50.53 35.73H50.4C49.08 38.28 47.1 39.55 44.47 39.55C42.64 39.55 41.29 38.95 40.42 37.75C39.55 36.55 39.12 34.68 39.12 32.13V11.55H45.32V31.78C45.32 33.01 45.45 33.89 45.72 34.41C45.99 34.93 46.44 35.2 47.07 35.2C47.61 35.2 48.13 35.04 48.62 34.71C49.11 34.38 49.48 33.96 49.72 33.45V11.55H55.92Z" fill="white"/>
<path d="M87.74 11.55V39.1H82.89L82.35 35.73H82.22C80.9 38.28 78.92 39.55 76.29 39.55C74.46 39.55 73.11 38.95 72.24 37.75C71.37 36.55 70.94 34.68 70.94 32.13V11.55H77.14V31.78C77.14 33.01 77.27 33.89 77.54 34.41C77.81 34.93 78.26 35.2 78.89 35.2C79.43 35.2 79.95 35.04 80.44 34.71C80.93 34.38 81.3 33.96 81.54 33.45V11.55H87.74Z" fill="white"/>
<path d="M72.78 6.37989H66.62V39.0999H60.55V6.37989H54.39V1.38989H72.77V6.37989H72.78Z" fill="white"/>
<path d="M108.27 15.96C107.89 14.22 107.29 12.96 106.45 12.18C105.61 11.4 104.46 11.01 102.99 11.01C101.85 11.01 100.79 11.33 99.8 11.98C98.81 12.62 98.05 13.47 97.51 14.52H97.46V0H91.48V39.11H96.6L97.23 36.5H97.36C97.84 37.43 98.56 38.16 99.52 38.7C100.48 39.24 101.54 39.51 102.71 39.51C104.81 39.51 106.35 38.54 107.34 36.61C108.33 34.68 108.82 31.66 108.82 27.55V23.19C108.83 20.11 108.64 17.7 108.27 15.96ZM102.58 27.2C102.58 29.21 102.5 30.78 102.33 31.92C102.17 33.06 101.89 33.87 101.5 34.35C101.11 34.83 100.59 35.07 99.93 35.07C99.42 35.07 98.95 34.95 98.51 34.71C98.08 34.47 97.72 34.11 97.45 33.63V17.98C97.66 17.23 98.02 16.62 98.53 16.14C99.04 15.66 99.59 15.42 100.19 15.42C100.82 15.42 101.31 15.67 101.65 16.16C101.99 16.65 102.23 17.49 102.37 18.65C102.5 19.82 102.57 21.48 102.57 23.64V27.2H102.58Z" fill="white"/>
</svg>
