<svg width="40" height="40" viewBox="0 0 40 40" fill="none" xmlns="http://www.w3.org/2000/svg">
<path fill-rule="evenodd" clip-rule="evenodd" d="M27.9366 13.1024C27.0356 12.1956 25.9637 11.4765 24.7828 10.9869C23.602 10.4972 22.3357 10.2468 21.0574 10.25C15.6971 10.25 11.3334 14.6126 11.3313 19.9751C11.3313 21.6889 11.7787 23.3616 12.6291 24.8371L11.25 29.8757L16.4056 28.5226C17.8317 29.2989 19.4294 29.706 21.0531 29.7067H21.0574C26.4167 29.7067 30.7803 25.3441 30.7825 19.9816C30.7862 18.7038 30.5366 17.4379 30.0481 16.2572C29.5596 15.0764 28.8419 14.0042 27.9366 13.1024ZM21.0574 28.0654H21.0542C19.6063 28.0656 18.1851 27.6761 16.9397 26.9377L16.645 26.7622L13.5857 27.5649L14.4014 24.5825L14.2097 24.277C13.4002 22.9883 12.9717 21.497 12.9736 19.9751C12.9757 15.5183 16.6017 11.8924 21.0607 11.8924C22.1226 11.89 23.1745 12.0983 24.1554 12.5052C25.1363 12.912 26.0267 13.5094 26.7752 14.2627C27.5278 15.0124 28.1242 15.9038 28.5301 16.8854C28.936 17.8671 29.1434 18.9194 29.1402 19.9816C29.138 24.4384 25.5121 28.0654 21.0574 28.0654ZM25.4915 22.0107C25.2477 21.8883 24.0539 21.3011 23.8307 21.2199C23.6087 21.1386 23.4472 21.0985 23.2847 21.3412C23.1222 21.5839 22.6564 22.1309 22.5145 22.2934C22.3726 22.4559 22.2307 22.4754 21.988 22.3541C21.7453 22.2328 20.9621 21.976 20.0337 21.1484C19.3111 20.5038 18.8236 19.7086 18.6817 19.4649C18.5397 19.2211 18.6665 19.09 18.7889 18.9687C18.8983 18.8604 19.0316 18.6849 19.1529 18.5429C19.2742 18.401 19.3143 18.3003 19.3956 18.1378C19.4768 17.9753 19.4367 17.8334 19.375 17.712C19.3143 17.5896 18.8279 16.3936 18.6253 15.9072C18.4292 15.4359 18.2288 15.4988 18.0793 15.4923C17.9245 15.4859 17.7695 15.4831 17.6146 15.4836C17.4914 15.4868 17.3701 15.5153 17.2584 15.5675C17.1468 15.6197 17.0471 15.6944 16.9657 15.7869C16.7425 16.0307 16.1152 16.6179 16.1152 17.8139C16.1152 19.0099 16.9862 20.1658 17.1076 20.3283C17.2289 20.4908 18.8214 22.9445 21.2589 23.9975C21.8396 24.2478 22.2924 24.3973 22.6445 24.5099C23.2262 24.6952 23.756 24.6681 24.1752 24.6064C24.6422 24.537 25.6128 24.0192 25.8154 23.4515C26.018 22.8839 26.018 22.3974 25.9573 22.2956C25.8967 22.1938 25.7331 22.132 25.4915 22.0107Z" fill="white"/>
<rect x="0.5" y="0.5" width="39" height="39" stroke="white"/>
</svg>
