<svg width="142" height="63" viewBox="0 0 142 63" fill="none" xmlns="http://www.w3.org/2000/svg">
<path d="M92.037 0.421249V10.6237L76.8661 26.4941V0.421249H92.037Z" fill="white"/>
<path d="M0 62.7694H45.5128V46.3322H15.1709V41.231H45.5128V24.2269H15.1709V19.1257H45.5128V2.68845H0V62.7694Z" fill="white"/>
<path d="M48.0413 62.7694H62.7066V45.7654H77.8775V62.7694H93.0484V45.7036L79.1417 28.8259L62.7066 28.7613V2.68845H48.0413V62.7694Z" fill="white"/>
<path d="M95.3241 41.5144L125.919 41.8142V46.3322H95.0712V62.7694H141.09V24.7937H110.242V19.1257H141.09V2.68845H95.0581L95.3241 41.5144Z" fill="white"/>
<path d="M92.037 0.396759V10.5992L76.8661 26.4696V0.396759H92.037Z" fill="#FECC00"/>
</svg>
