<svg width="40" height="40" viewBox="0 0 40 40" fill="none" xmlns="http://www.w3.org/2000/svg">
<path d="M31.9738 13.5688C32.1488 12.9875 31.9738 12.5613 31.1463 12.5613H28.405C27.7075 12.5613 27.3888 12.93 27.2138 13.335C27.2138 13.335 25.82 16.7338 23.845 18.9375C23.2075 19.5788 22.9163 19.7813 22.5688 19.7813C22.395 19.7813 22.1425 19.5788 22.1425 18.9975V13.5688C22.1425 12.8713 21.9413 12.5613 21.36 12.5613H17.0525C16.6175 12.5613 16.355 12.8838 16.355 13.1913C16.355 13.8513 17.3425 14.0038 17.4438 15.8638V19.8988C17.4438 20.7825 17.285 20.9438 16.935 20.9438C16.0063 20.9438 13.7463 17.5325 12.405 13.6275C12.1438 12.8688 11.88 12.5625 11.18 12.5625H8.44C7.65625 12.5625 7.5 12.9313 7.5 13.3363C7.5 14.0638 8.42875 17.6638 11.8263 22.425C14.0913 25.6763 17.28 27.4388 20.185 27.4388C21.9263 27.4388 22.1413 27.0475 22.1413 26.3725V23.915C22.1413 23.1325 22.3075 22.975 22.8588 22.975C23.2638 22.975 23.9613 23.18 25.5875 24.7463C27.445 26.6038 27.7525 27.4375 28.7963 27.4375H31.5363C32.3188 27.4375 32.71 27.0463 32.485 26.2738C32.2388 25.505 31.3513 24.3863 30.1738 23.0625C29.5338 22.3075 28.5775 21.495 28.2863 21.0888C27.88 20.565 27.9975 20.3338 28.2863 19.8688C28.2875 19.87 31.6263 15.1675 31.9738 13.5688Z" fill="white"/>
<rect x="0.5" y="0.5" width="39" height="39" stroke="white"/>
</svg>
