<svg width="24" height="24" viewBox="0 0 24 24" fill="none" xmlns="http://www.w3.org/2000/svg">
<path d="M3.99996 6.414L0.756958 3.172L2.17196 1.757L5.41396 5C10.5721 5 21.9999 5 21.9999 5C21.9999 5 19.9384 10.8757 18.9999 14C14.6666 14 10.3333 14 5.99996 14V16H17V18L3.99994 18L3.99996 6.414ZM5.99996 7V12H17.512L19.312 7H5.99996ZM5.49996 22C5.10213 22 4.7206 21.842 4.4393 21.5607C4.15799 21.2794 3.99996 20.8978 3.99996 20.5C3.99996 20.1022 4.15799 19.7206 4.4393 19.4393C4.7206 19.158 5.10213 19 5.49996 19C5.89778 19 6.27931 19.158 6.56062 19.4393C6.84192 19.7206 6.99996 20.1022 6.99996 20.5C6.99996 20.8978 6.84192 21.2794 6.56062 21.5607C6.27931 21.842 5.89778 22 5.49996 22ZM17.5 22C17.1021 22 16.7206 21.842 16.4393 21.5607C16.158 21.2794 16 20.8978 16 20.5C16 20.1022 16.158 19.7206 16.4393 19.4393C16.7206 19.158 17.1021 19 17.5 19C17.8978 19 18.2793 19.158 18.5606 19.4393C18.8419 19.7206 19 20.1022 19 20.5C19 20.8978 18.8419 21.2794 18.5606 21.5607C18.2793 21.842 17.8978 22 17.5 22Z" fill="#fff"/>
</svg>
